<svg xmlns="http://www.w3.org/2000/svg" fill="none" viewBox="0 0 508 100"><path fill="#000" d="M439.901 100V16.48h4.68l58.32 56.64V16.48h4.44V100h-4.44V79.36l-58.56-57.12V100h-4.44ZM381.552 95.56V20.92h-24.84v-4.44h54v4.44h-24.84v74.64h24.84V100h-54v-4.44h24.84Zm19.92-94.8V5.2h-35.52V.76h35.52ZM265.364 16.48l29.64 44.64 29.4-44.64h5.28l-32.52 49.32V100h-4.44V65.8l-32.64-49.32h5.28ZM173.416 100V16.48h4.68l58.32 56.64V16.48h4.44V100h-4.44V79.36l-58.56-57.12V100h-4.44ZM115.068 95.56V20.92h-24.84v-4.44h54v4.44h-24.84v74.64h24.84V100h-54v-4.44h24.84Zm19.92-94.8V5.2h-35.52V.76h35.52ZM5.12 100H.68V16.48h33.6c5.6 0 10.76 1.2 15.48 3.6 4.8 2.4 8.6 5.8 11.4 10.2 2.8 4.4 4.2 9.48 4.2 15.24 0 5.52-1.44 10.6-4.32 15.24-2.8 4.64-6.64 8.2-11.52 10.68-4.24 2.16-9.32 3.24-15.24 3.24H5.12V100Zm0-29.76h29.16c5.12 0 9.32-.8 12.6-2.4 4.24-2 7.64-5 10.2-9 2.56-4 3.84-8.44 3.84-13.32 0-4.8-1.28-9.2-3.84-13.2-2.56-4-6-7-10.32-9-3.28-1.6-7.44-2.4-12.48-2.4H5.12v49.32Z"/></svg>